# MagicaVoxel @ Ephtracy

# group
g chr_old

# material
mtllib chr_old.mtl
usemtl palette

# normals
vn -1 0 0
vn 1 0 0
vn 0 0 1
vn 0 0 -1
vn 0 -1 0
vn 0 1 0

# texcoords
vt 0.00195312 0.5
vt 0.0332031 0.5
vt 0.0605469 0.5
vt 0.142578 0.5
vt 0.310547 0.5
vt 0.521484 0.5
vt 0.611328 0.5
vt 0.634766 0.5
vt 0.646484 0.5
vt 0.705078 0.5
vt 0.845703 0.5
vt 0.916016 0.5
vt 0.994141 0.5

# verts
v -5 5 5.5
v -5 5 -0.5
v -5 7 5.5
v -5 7 -0.5
v -3 1 2.5
v -3 1 -2.5
v -3 4 2.5
v -3 4 1.5
v -3 5 2.5
v -3 5 1.5
v -3 5 -0.5
v -3 7 2.5
v -3 7 -0.5
v -3 7 -2.5
v -3 12 2.5
v -3 12 -2.5
v -2 0 0.5
v -2 0 -0.5
v -2 1 0.5
v -2 1 -0.5
v -2 6 3.5
v -2 6 2.5
v -2 7 2.5
v -2 8 3.5
v -2 8 2.5
v -2 12 1.5
v -2 12 -1.5
v -2 13 1.5
v -2 13 -1.5
v -1 5 3.5
v -1 5 2.5
v -1 6 3.5
v -1 6 2.5
v 1 0 0.5
v 1 0 -0.5
v 1 1 0.5
v 1 1 -0.5
v -3 5 5.5
v -3 5 2.5
v -3 7 5.5
v -3 7 2.5
v -1 0 0.5
v -1 0 -0.5
v -1 1 0.5
v -1 1 -0.5
v 1 5 3.5
v 1 5 2.5
v 1 6 3.5
v 1 6 2.5
v 2 0 0.5
v 2 0 -0.5
v 2 1 0.5
v 2 1 -0.5
v 2 6 3.5
v 2 6 2.5
v 2 7 2.5
v 2 8 3.5
v 2 8 2.5
v 2 12 1.5
v 2 12 -1.5
v 2 13 1.5
v 2 13 -1.5
v 3 1 2.5
v 3 1 -1.5
v 3 1 -2.5
v 3 7 2.5
v 3 7 -1.5
v 3 7 -2.5
v 3 12 2.5
v 3 12 -2.5
v -5 5 5.5
v -5 7 5.5
v -3 5 5.5
v -3 7 5.5
v -2 6 3.5
v -2 8 3.5
v -1 5 3.5
v -1 6 3.5
v 1 5 3.5
v 1 6 3.5
v 2 6 3.5
v 2 8 3.5
v -3 1 2.5
v -3 4 2.5
v -3 5 2.5
v -3 7 2.5
v -3 12 2.5
v -2 1 2.5
v -2 4 2.5
v -2 5 2.5
v -2 6 2.5
v -2 7 2.5
v -2 8 2.5
v -2 9 2.5
v -2 10 2.5
v -2 12 2.5
v -1 1 2.5
v -1 4 2.5
v -1 5 2.5
v -1 6 2.5
v -1 8 2.5
v -1 9 2.5
v -1 10 2.5
v 0 1 2.5
v 0 3 2.5
v 1 3 2.5
v 1 4 2.5
v 1 5 2.5
v 1 6 2.5
v 1 8 2.5
v 1 9 2.5
v 1 10 2.5
v 1 11 2.5
v 1 12 2.5
v 2 5 2.5
v 2 6 2.5
v 2 7 2.5
v 2 8 2.5
v 2 9 2.5
v 2 10 2.5
v 2 11 2.5
v 2 12 2.5
v 3 1 2.5
v 3 7 2.5
v 3 12 2.5
v -2 12 1.5
v -2 13 1.5
v -1 12 1.5
v -1 13 1.5
v 1 12 1.5
v 2 12 1.5
v 2 13 1.5
v -2 0 0.5
v -2 1 0.5
v -1 0 0.5
v -1 1 0.5
v 1 0 0.5
v 1 1 0.5
v 2 0 0.5
v 2 1 0.5
v -5 5 -0.5
v -5 7 -0.5
v -3 5 -0.5
v -3 7 -0.5
v -2 0 -0.5
v -2 1 -0.5
v -1 0 -0.5
v -1 1 -0.5
v 1 0 -0.5
v 1 1 -0.5
v 2 0 -0.5
v 2 1 -0.5
v -2 12 -1.5
v -2 13 -1.5
v -1 12 -1.5
v -1 13 -1.5
v 2 12 -1.5
v 2 13 -1.5
v -3 1 -2.5
v -3 7 -2.5
v -3 12 -2.5
v -2 7 -2.5
v -2 12 -2.5
v 3 1 -2.5
v 3 7 -2.5
v 3 12 -2.5
v -2 0 0.5
v -1 0 0.5
v 1 0 0.5
v 2 0 0.5
v -2 0 -0.5
v -1 0 -0.5
v 1 0 -0.5
v 2 0 -0.5
v -3 1 2.5
v -2 1 2.5
v -1 1 2.5
v 0 1 2.5
v 3 1 2.5
v -2 1 1.5
v -1 1 1.5
v 0 1 1.5
v -2 1 0.5
v -1 1 0.5
v 1 1 0.5
v 2 1 0.5
v -2 1 -0.5
v -1 1 -0.5
v 1 1 -0.5
v 2 1 -0.5
v -2 1 -1.5
v 3 1 -1.5
v -3 1 -2.5
v 3 1 -2.5
v -5 5 5.5
v -3 5 5.5
v -1 5 3.5
v 1 5 3.5
v -3 5 2.5
v -1 5 2.5
v 1 5 2.5
v -3 5 1.5
v -5 5 -0.5
v -3 5 -0.5
v -2 6 3.5
v -1 6 3.5
v 1 6 3.5
v 2 6 3.5
v -2 6 2.5
v -1 6 2.5
v 1 6 2.5
v 2 6 2.5
v -5 7 5.5
v -3 7 5.5
v -3 7 2.5
v -5 7 -0.5
v -3 7 -0.5
v -2 8 3.5
v 2 8 3.5
v -2 8 2.5
v -1 8 2.5
v 1 8 2.5
v 2 8 2.5
v -3 12 2.5
v -2 12 2.5
v 1 12 2.5
v 2 12 2.5
v 3 12 2.5
v -2 12 1.5
v -1 12 1.5
v 1 12 1.5
v 2 12 1.5
v -2 12 -1.5
v -1 12 -1.5
v 2 12 -1.5
v -3 12 -2.5
v -2 12 -2.5
v 3 12 -2.5
v -2 13 1.5
v -1 13 1.5
v 2 13 1.5
v -2 13 -1.5
v -1 13 -1.5
v 2 13 -1.5

# faces
f 3/3/1 2/3/1 1/3/1
f 4/3/1 2/3/1 3/3/1
f 7/5/1 6/5/1 5/5/1
f 8/5/1 6/5/1 7/5/1
f 9/10/1 8/10/1 7/10/1
f 10/5/1 6/5/1 8/5/1
f 10/10/1 8/10/1 9/10/1
f 11/5/1 6/5/1 10/5/1
f 13/5/1 6/5/1 11/5/1
f 14/5/1 6/5/1 13/5/1
f 15/3/1 13/3/1 12/3/1
f 15/3/1 14/3/1 13/3/1
f 16/3/1 14/3/1 15/3/1
f 19/9/1 18/9/1 17/9/1
f 20/9/1 18/9/1 19/9/1
f 23/12/1 22/12/1 21/12/1
f 24/12/1 23/12/1 21/12/1
f 25/12/1 23/12/1 24/12/1
f 28/3/1 27/3/1 26/3/1
f 29/3/1 27/3/1 28/3/1
f 32/12/1 31/12/1 30/12/1
f 33/12/1 31/12/1 32/12/1
f 36/9/1 35/9/1 34/9/1
f 37/9/1 35/9/1 36/9/1
f 38/3/2 39/3/2 40/3/2
f 40/3/2 39/3/2 41/3/2
f 42/9/2 43/9/2 44/9/2
f 44/9/2 43/9/2 45/9/2
f 46/12/2 47/12/2 48/12/2
f 48/12/2 47/12/2 49/12/2
f 50/9/2 51/9/2 52/9/2
f 52/9/2 51/9/2 53/9/2
f 54/12/2 55/12/2 56/12/2
f 54/12/2 56/12/2 57/12/2
f 57/12/2 56/12/2 58/12/2
f 59/2/2 60/2/2 61/2/2
f 61/2/2 60/2/2 62/2/2
f 63/4/2 64/4/2 66/4/2
f 64/5/2 65/5/2 67/5/2
f 66/4/2 64/4/2 67/4/2
f 67/5/2 65/5/2 68/5/2
f 66/2/2 67/2/2 69/2/2
f 67/2/2 68/2/2 69/2/2
f 69/2/2 68/2/2 70/2/2
f 73/3/3 72/3/3 71/3/3
f 74/3/3 72/3/3 73/3/3
f 78/12/3 76/12/3 75/12/3
f 79/12/3 78/12/3 77/12/3
f 80/12/3 76/12/3 78/12/3
f 80/12/3 78/12/3 79/12/3
f 81/12/3 76/12/3 80/12/3
f 82/12/3 76/12/3 81/12/3
f 88/5/3 84/5/3 83/5/3
f 89/10/3 85/10/3 84/10/3
f 89/5/3 84/5/3 88/5/3
f 90/5/3 86/5/3 85/5/3
f 90/10/3 85/10/3 89/10/3
f 91/5/3 86/5/3 90/5/3
f 92/3/3 87/3/3 86/3/3
f 92/5/3 86/5/3 91/5/3
f 93/3/3 87/3/3 92/3/3
f 94/3/3 87/3/3 93/3/3
f 95/3/3 87/3/3 94/3/3
f 96/3/3 87/3/3 95/3/3
f 97/10/3 91/10/3 90/10/3
f 97/10/3 89/10/3 88/10/3
f 97/10/3 90/10/3 89/10/3
f 98/10/3 91/10/3 97/10/3
f 99/10/3 91/10/3 98/10/3
f 100/10/3 91/10/3 99/10/3
f 101/13/3 94/13/3 93/13/3
f 102/11/3 95/11/3 94/11/3
f 102/13/3 94/13/3 101/13/3
f 103/2/3 96/2/3 95/2/3
f 103/11/3 95/11/3 102/11/3
f 104/5/3 98/5/3 97/5/3
f 105/5/3 98/5/3 104/5/3
f 106/4/3 105/4/3 104/4/3
f 106/5/3 98/5/3 105/5/3
f 107/10/3 99/10/3 98/10/3
f 107/5/3 98/5/3 106/5/3
f 108/10/3 99/10/3 107/10/3
f 110/2/3 102/2/3 101/2/3
f 110/2/3 103/2/3 102/2/3
f 111/2/3 103/2/3 110/2/3
f 112/2/3 96/2/3 103/2/3
f 112/2/3 103/2/3 111/2/3
f 113/2/3 96/2/3 112/2/3
f 114/2/3 96/2/3 113/2/3
f 115/10/3 109/10/3 108/10/3
f 115/4/3 108/4/3 107/4/3
f 115/4/3 107/4/3 106/4/3
f 116/10/3 109/10/3 115/10/3
f 118/13/3 111/13/3 110/13/3
f 119/11/3 112/11/3 111/11/3
f 119/13/3 111/13/3 118/13/3
f 120/2/3 113/2/3 112/2/3
f 120/11/3 112/11/3 119/11/3
f 121/1/3 114/1/3 113/1/3
f 121/2/3 113/2/3 120/2/3
f 122/1/3 114/1/3 121/1/3
f 123/4/3 117/4/3 116/4/3
f 123/4/3 106/4/3 104/4/3
f 123/4/3 115/4/3 106/4/3
f 123/4/3 116/4/3 115/4/3
f 124/2/3 120/2/3 119/2/3
f 124/4/3 117/4/3 123/4/3
f 124/2/3 122/2/3 121/2/3
f 124/2/3 119/2/3 118/2/3
f 124/2/3 121/2/3 120/2/3
f 124/2/3 118/2/3 117/2/3
f 125/2/3 122/2/3 124/2/3
f 128/3/3 127/3/3 126/3/3
f 129/3/3 127/3/3 128/3/3
f 130/2/3 129/2/3 128/2/3
f 131/2/3 129/2/3 130/2/3
f 132/2/3 129/2/3 131/2/3
f 135/9/3 134/9/3 133/9/3
f 136/9/3 134/9/3 135/9/3
f 139/9/3 138/9/3 137/9/3
f 140/9/3 138/9/3 139/9/3
f 141/3/4 142/3/4 143/3/4
f 143/3/4 142/3/4 144/3/4
f 145/9/4 146/9/4 147/9/4
f 147/9/4 146/9/4 148/9/4
f 149/9/4 150/9/4 151/9/4
f 151/9/4 150/9/4 152/9/4
f 153/3/4 154/3/4 155/3/4
f 155/3/4 154/3/4 156/3/4
f 155/2/4 156/2/4 157/2/4
f 157/2/4 156/2/4 158/2/4
f 159/5/4 160/5/4 162/5/4
f 160/3/4 161/3/4 162/3/4
f 162/3/4 161/3/4 163/3/4
f 159/5/4 162/5/4 164/5/4
f 162/2/4 163/2/4 165/2/4
f 164/5/4 162/5/4 165/5/4
f 165/2/4 163/2/4 166/2/4
f 171/9/5 168/9/5 167/9/5
f 172/9/5 168/9/5 171/9/5
f 173/9/5 170/9/5 169/9/5
f 174/9/5 170/9/5 173/9/5
f 180/5/5 176/5/5 175/5/5
f 180/10/5 177/10/5 176/10/5
f 181/5/5 178/5/5 177/5/5
f 181/10/5 177/10/5 180/10/5
f 182/4/5 179/4/5 178/4/5
f 182/5/5 178/5/5 181/5/5
f 183/4/5 181/4/5 180/4/5
f 183/5/5 180/5/5 175/5/5
f 183/4/5 182/4/5 181/4/5
f 184/4/5 182/4/5 183/4/5
f 185/4/5 179/4/5 182/4/5
f 185/4/5 182/4/5 184/4/5
f 186/4/5 179/4/5 185/4/5
f 187/5/5 183/5/5 175/5/5
f 188/4/5 185/4/5 184/4/5
f 189/4/5 185/4/5 188/4/5
f 190/4/5 179/4/5 186/4/5
f 191/4/5 189/4/5 188/4/5
f 191/4/5 190/4/5 189/4/5
f 191/5/5 187/5/5 175/5/5
f 191/4/5 188/4/5 187/4/5
f 192/4/5 179/4/5 190/4/5
f 192/4/5 190/4/5 191/4/5
f 193/5/5 191/5/5 175/5/5
f 193/5/5 192/5/5 191/5/5
f 194/5/5 192/5/5 193/5/5
f 199/3/5 196/3/5 195/3/5
f 200/12/5 198/12/5 197/12/5
f 201/12/5 198/12/5 200/12/5
f 202/3/5 199/3/5 195/3/5
f 203/3/5 202/3/5 195/3/5
f 204/3/5 202/3/5 203/3/5
f 209/12/5 206/12/5 205/12/5
f 210/12/5 206/12/5 209/12/5
f 211/12/5 208/12/5 207/12/5
f 212/12/5 208/12/5 211/12/5
f 213/3/6 214/3/6 215/3/6
f 213/3/6 215/3/6 216/3/6
f 216/3/6 215/3/6 217/3/6
f 218/12/6 219/12/6 220/12/6
f 220/12/6 219/12/6 221/12/6
f 221/12/6 219/12/6 222/12/6
f 222/12/6 219/12/6 223/12/6
f 224/3/6 225/3/6 229/3/6
f 225/2/6 226/2/6 229/2/6
f 229/2/6 226/2/6 230/2/6
f 226/1/6 227/1/6 231/1/6
f 230/2/6 226/2/6 231/2/6
f 227/2/6 228/2/6 232/2/6
f 231/1/6 227/1/6 232/1/6
f 224/3/6 229/3/6 233/3/6
f 232/2/6 228/2/6 235/2/6
f 224/3/6 233/3/6 236/3/6
f 233/2/6 234/2/6 237/2/6
f 236/3/6 233/3/6 237/3/6
f 234/2/6 235/2/6 237/2/6
f 235/2/6 228/2/6 238/2/6
f 237/2/6 235/2/6 238/2/6
f 239/3/6 240/3/6 242/3/6
f 240/2/6 241/2/6 243/2/6
f 242/3/6 240/3/6 243/3/6
f 243/2/6 241/2/6 244/2/6
